<?xml version="1.0" encoding="UTF-8" standalone="no"?>
<!DOCTYPE svg PUBLIC "-//W3C//DTD SVG 1.1//EN" "http://www.w3.org/Graphics/SVG/1.1/DTD/svg11.dtd">
<svg width="100%" height="100%" viewBox="0 0 385 393" version="1.1" xmlns="http://www.w3.org/2000/svg" xmlns:xlink="http://www.w3.org/1999/xlink" xml:space="preserve" xmlns:serif="http://www.serif.com/" style="fill-rule:evenodd;clip-rule:evenodd;">
    <g transform="matrix(0.749027,0,0,-0.749027,0,393.239)">
        <rect x="0" y="1" width="514" height="524" style="fill:white;"/>
    </g>
    <g transform="matrix(1.01391,0,0,1.01391,-2.34499,-2.40013)">
        <clipPath id="_clip1">
            <rect x="0.464" y="1.603" width="382.585" height="389.782"/>
        </clipPath>
        <g clip-path="url(#_clip1)">
            <g transform="matrix(0.76517,0,0,-0.764279,0.464211,390.621)">
                <path d="M1,4L1,505C1,505.398 1.076,505.781 1.228,506.148C1.381,506.516 1.597,506.84 1.879,507.121C2.16,507.403 2.484,507.619 2.852,507.772C3.219,507.924 3.602,508 4,508L496,508C496.398,508 496.78,507.924 497.148,507.772C497.516,507.619 497.84,507.403 498.121,507.121C498.403,506.84 498.619,506.516 498.772,506.148C498.924,505.781 499,505.398 499,505L499,4C499,3.602 498.924,3.22 498.772,2.852C498.619,2.484 498.403,2.16 498.121,1.879C497.84,1.597 497.516,1.381 497.148,1.228C496.78,1.076 496.398,1 496,1L4,1C3.602,1 3.219,1.076 2.852,1.228C2.484,1.381 2.16,1.597 1.879,1.879C1.597,2.16 1.381,2.484 1.228,2.852C1.076,3.22 1,3.602 1,4Z" style="fill:none;fill-rule:nonzero;stroke:rgb(102,102,102);stroke-width:1.97px;"/>
            </g>
            <g transform="matrix(0.76517,0,0,-0.764279,0.464211,35.2312)">
                <rect x="2" y="2" width="40" height="40" style="fill:rgb(102,102,102);"/>
            </g>
            <g transform="matrix(0.76517,0,0,-0.764279,12.7069,22.2385)">
                <path d="M12,6L12,4L4.414,4L6.707,1.707L5.293,0.293L0.586,5L5.293,9.707L6.707,8.293L4.414,6L12,6Z" style="fill:white;"/>
            </g>
            <g transform="matrix(0.76517,0,0,-0.764279,0.464211,4.66004)">
                <rect x="2" y="1" width="40" height="2" style="fill:rgb(102,102,102);"/>
            </g>
            <g transform="matrix(0.76517,0,0,-0.764279,0.464211,35.2312)">
                <rect x="41" y="2" width="2" height="40" style="fill:rgb(102,102,102);"/>
            </g>
            <g transform="matrix(0.76517,0,0,-0.764279,0.464211,65.8024)">
                <rect x="2" y="41" width="40" height="2" style="fill:rgb(102,102,102);"/>
            </g>
            <g transform="matrix(0.76517,0,0,-0.764279,0.464211,35.2312)">
                <rect x="1" y="2" width="2" height="40" style="fill:rgb(102,102,102);"/>
            </g>
            <g transform="matrix(0.76517,0,0,-0.764279,0.464211,35.2312)">
                <rect x="42" y="2" width="25" height="40" style="fill:rgb(102,102,102);"/>
            </g>
            <g transform="matrix(0.76517,0,0,-0.764279,32.6013,22.2385)">
                <path d="M0,6L0,4L6.879,4L4.586,1.707L6,0.293L10.707,5L6,9.707L4.586,8.293L6.879,6L0,6Z" style="fill:white;"/>
            </g>
            <g transform="matrix(0.76517,0,0,-0.764279,0.464211,4.66004)">
                <rect x="42" y="1" width="25" height="2" style="fill:rgb(102,102,102);"/>
            </g>
            <g transform="matrix(0.76517,0,0,-0.764279,0.464211,35.2312)">
                <rect x="66" y="2" width="2" height="40" style="fill:rgb(102,102,102);"/>
            </g>
            <g transform="matrix(0.76517,0,0,-0.764279,0.464211,65.8024)">
                <rect x="42" y="41" width="25" height="2" style="fill:rgb(102,102,102);"/>
            </g>
            <g transform="matrix(0.76517,0,0,-0.764279,0.464211,35.2312)">
                <rect x="67" y="2" width="24" height="40" style="fill:rgb(102,102,102);"/>
            </g>
            <g transform="matrix(0.76517,0,0,-0.764279,51.7306,22.2385)">
                <path d="M9,8C8.088,9.215 6.636,10 5,10C2.239,10 0,7.761 0,5C0,2.239 2.239,0 5,0C6.966,0 8.666,1.134 9.483,2.784L7.691,3.672C7.188,2.656 6.153,2 5,2C3.343,2 2,3.343 2,5C2,6.657 3.343,8 5,8C6.06,8 7.021,7.447 7.562,6.562L6,5L10,5L10,9L9,8Z" style="fill:white;"/>
            </g>
            <g transform="matrix(0.76517,0,0,-0.764279,0.464211,4.66004)">
                <rect x="67" y="1" width="24" height="2" style="fill:rgb(102,102,102);"/>
            </g>
            <g transform="matrix(0.76517,0,0,-0.764279,0.464211,35.2312)">
                <rect x="90" y="2" width="2" height="40" style="fill:rgb(102,102,102);"/>
            </g>
            <g transform="matrix(0.76517,0,0,-0.764279,0.464211,65.8024)">
                <rect x="67" y="41" width="24" height="2" style="fill:rgb(102,102,102);"/>
            </g>
            <g transform="matrix(0.76517,0,0,-0.764279,0.464211,35.2312)">
                <rect x="91" y="2" width="369" height="40" style="fill:rgb(102,102,102);"/>
            </g>
            <g transform="matrix(0.76517,0,0,-0.764279,0.464211,35.2312)">
                <path d="M92,16L92,28C92,28.53 92.101,29.041 92.304,29.531C92.507,30.021 92.796,30.453 93.172,30.828C93.547,31.204 93.979,31.493 94.469,31.696C94.959,31.899 95.47,32 96,32L455,32C455.53,32 456.041,31.899 456.531,31.696C457.021,31.493 457.453,31.204 457.828,30.828C458.203,30.453 458.492,30.021 458.695,29.531C458.898,29.041 459,28.53 459,28L459,16C459,15.47 458.898,14.959 458.695,14.469C458.492,13.979 458.203,13.547 457.828,13.172C457.453,12.797 457.021,12.507 456.531,12.304C456.041,12.101 455.53,12 455,12L96,12C95.47,12 94.959,12.101 94.469,12.304C93.979,12.507 93.547,12.797 93.172,13.172C92.796,13.547 92.507,13.979 92.304,14.469C92.101,14.959 92,15.47 92,16Z" style="fill:white;fill-rule:nonzero;"/>
            </g>
            <g transform="matrix(0.76517,0,0,-0.764279,0.464211,4.66004)">
                <rect x="91" y="1" width="369" height="2" style="fill:rgb(102,102,102);"/>
            </g>
            <g transform="matrix(0.76517,0,0,-0.764279,0.464211,35.2312)">
                <rect x="459" y="2" width="2" height="40" style="fill:rgb(102,102,102);"/>
            </g>
            <g transform="matrix(0.76517,0,0,-0.764279,0.464211,65.8024)">
                <rect x="91" y="41" width="369" height="2" style="fill:rgb(102,102,102);"/>
            </g>
            <g transform="matrix(0.76517,0,0,-0.764279,0.464211,35.2312)">
                <rect x="460" y="2" width="38" height="40" style="fill:rgb(102,102,102);"/>
            </g>
            <g transform="matrix(0.76517,0,0,-0.764279,363.155,21.7908)">
                <path d="M3.293,4.707L0,8L1.414,9.414L4.707,6.121L8,9.414L9.414,8L6.121,4.707L9.414,1.414L8,0L4.707,3.293L1.414,0L0,1.414L3.293,4.707Z" style="fill:white;"/>
            </g>
            <g transform="matrix(0.76517,0,0,-0.764279,0.464211,4.66004)">
                <rect x="460" y="1" width="38" height="2" style="fill:rgb(102,102,102);"/>
            </g>
            <g transform="matrix(0.76517,0,0,-0.764279,0.464211,35.2312)">
                <rect x="497" y="2" width="2" height="40" style="fill:rgb(102,102,102);"/>
            </g>
            <g transform="matrix(0.76517,0,0,-0.764279,0.464211,65.8024)">
                <rect x="460" y="41" width="38" height="2" style="fill:rgb(102,102,102);"/>
            </g>
            <g transform="matrix(0.220598,0,0,-0.220692,210.769,212.752)">
                <path d="M194.005,139.425L299.059,139.425C328.275,139.425 351.588,163.526 351.588,192.839L351.588,293.074C351.588,321.599 327.586,342.945 299.059,347.765C263.845,353.569 225.58,353.274 194.005,347.668C149.543,339.798 141.478,323.37 141.478,292.975L141.478,271.522L246.63,271.522L246.63,239.563L102.032,239.563C71.441,239.563 44.683,221.169 36.323,186.248C26.683,146.213 26.291,121.228 36.323,79.422C43.8,48.337 61.603,26.108 92.195,26.108L128.296,26.108L128.296,74.109C128.296,108.832 158.298,139.425 194.005,139.425Z" style="fill:rgb(52,122,180);fill-rule:nonzero;"/>
            </g>
            <g transform="matrix(0.220598,0,0,-0.220692,210.769,213.099)">
                <path d="M128.296,17.681L92.195,17.681C59.353,17.681 36.058,39.336 26.6,78.657C16.454,120.933 16.455,148.027 26.6,190.162C31.121,209.047 40.843,224.721 54.712,235.476C67.922,245.721 84.285,251.136 102.031,251.136L236.63,251.136L236.63,263.095L141.478,263.095C135.955,263.095 131.478,267.572 131.478,273.095L131.478,294.548C131.478,308.502 132.901,324.437 143.457,336.826C152.909,347.92 167.961,354.786 192.263,359.087C208.775,362.019 227.39,363.569 246.092,363.569C264.747,363.569 283.115,362.1 300.686,359.204C317.031,356.442 332.069,348.905 343.071,337.975C355.012,326.11 361.59,310.722 361.59,294.646L361.59,194.411C361.59,159.444 333.539,130.997 299.061,130.997L194.005,130.997C164.328,130.997 138.296,105.148 138.296,75.681L138.296,27.68C138.296,22.158 133.819,17.681 128.296,17.681ZM102.032,231.136C73.819,231.136 52.89,214.073 46.048,185.493C36.522,145.93 36.523,123.018 46.047,83.328C51.055,62.507 63.128,37.681 92.195,37.681L118.296,37.681L118.296,75.682C118.296,94.945 126.455,114.169 140.682,128.425C155.209,142.982 174.146,150.998 194.005,150.998L299.059,150.998C322.51,150.998 341.588,170.474 341.588,194.412L341.588,294.647C341.588,319.176 319.355,335.767 297.393,339.478C280.933,342.191 263.66,343.57 246.091,343.57C228.542,343.57 211.135,342.126 195.754,339.395C155.846,332.331 151.479,319.706 151.479,294.548L151.479,283.095L246.631,283.095C252.154,283.095 256.631,278.618 256.631,273.095L256.631,241.136C256.631,235.613 252.154,231.136 246.631,231.136L102.032,231.136Z" style="fill:rgb(39,92,135);fill-rule:nonzero;"/>
            </g>
            <g transform="matrix(0.220598,0,0,-0.220692,210.769,271.065)">
                <path d="M474.975,434.533C467.4,464.928 453.04,487.848 422.448,487.848L383.005,487.848L383.005,441.222C383.005,405.023 352.313,374.531 317.295,374.531L212.24,374.531C183.516,374.531 159.712,349.937 159.712,321.117L159.712,220.979C159.712,192.455 184.5,175.733 212.24,167.566C245.487,157.829 277.455,156.057 317.294,167.566C343.756,175.241 369.823,190.682 369.823,220.979L369.823,241.976L264.867,241.976L264.867,274.393L422.447,274.393C453.04,274.393 464.351,295.739 474.974,327.707C485.992,360.661 485.501,392.335 474.975,434.533Z" style="fill:rgb(255,202,29);fill-rule:nonzero;"/>
            </g>
            <g transform="matrix(0.220598,0,0,-0.220692,210.769,270.286)">
                <path d="M264.431,146.057C246.684,146.057 228.693,148.8 209.43,154.442C170.915,165.781 149.712,188.157 149.712,217.452L149.712,317.589C149.712,351.963 178.346,381.003 212.24,381.003L317.294,381.003C346.972,381.003 373.004,407.494 373.004,437.694L373.004,484.32C373.004,489.843 377.482,494.32 383.004,494.32L422.447,494.32C439.723,494.32 453.993,488.041 464.859,475.656C473.593,465.701 480.076,451.886 484.677,433.424C495.868,388.561 495.803,354.941 484.458,321.009C474.348,290.585 461.228,260.865 422.446,260.865L274.866,260.865L274.866,248.448L369.822,248.448C375.344,248.448 379.822,243.97 379.822,238.448L379.822,217.451C379.822,196.607 369.457,168.755 320.078,154.433C300.563,148.796 282.364,146.057 264.431,146.057ZM212.24,361.003C189.187,361.003 169.712,341.122 169.712,317.589L169.712,217.451C169.712,190.941 198.127,178.617 215.065,173.631C232.704,168.465 248.395,166.057 264.431,166.057C280.459,166.057 296.844,168.539 314.519,173.646C344.578,182.364 359.824,197.103 359.824,217.452L359.824,228.449L264.868,228.449C259.346,228.449 254.868,232.927 254.868,238.449L254.868,270.866C254.868,276.388 259.346,280.866 264.868,280.866L422.448,280.866C443.596,280.866 453.652,291.723 465.485,327.334C475.674,357.81 475.611,387.139 465.272,428.586C457.389,460.217 444.182,474.321 422.448,474.321L393.005,474.321L393.005,437.695C393.005,396.124 358.334,361.004 317.295,361.004L212.24,361.004L212.24,361.003Z" style="fill:rgb(191,152,22);fill-rule:nonzero;"/>
            </g>
            <g transform="matrix(-0.220598,0,0,-0.220692,293.456,160.026)">
                <ellipse cx="187.415" cy="70.383" rx="18.976" ry="19.212" style="fill:white;"/>
            </g>
            <g transform="matrix(-0.220598,0,0,-0.220692,349.705,323.551)">
                <ellipse cx="314.908" cy="440.864" rx="18.976" ry="19.212" style="fill:white;"/>
            </g>
            <g transform="matrix(0.220598,0,0,-0.220692,66.6875,212.752)">
                <path d="M194.005,139.425L299.059,139.425C328.275,139.425 351.588,163.526 351.588,192.839L351.588,293.074C351.588,321.599 327.586,342.945 299.059,347.765C263.845,353.569 225.58,353.274 194.005,347.668C149.543,339.798 141.478,323.37 141.478,292.975L141.478,271.522L246.63,271.522L246.63,239.563L102.032,239.563C71.441,239.563 44.683,221.169 36.323,186.248C26.683,146.213 26.291,121.228 36.323,79.422C43.8,48.337 61.603,26.108 92.195,26.108L128.296,26.108L128.296,74.109C128.296,108.832 158.298,139.425 194.005,139.425Z" style="fill:rgb(52,122,180);fill-rule:nonzero;"/>
            </g>
            <g transform="matrix(0.220598,0,0,-0.220692,66.6875,213.099)">
                <path d="M128.296,17.681L92.195,17.681C59.353,17.681 36.058,39.336 26.6,78.657C16.454,120.933 16.455,148.027 26.6,190.162C31.121,209.047 40.843,224.721 54.712,235.476C67.922,245.721 84.285,251.136 102.031,251.136L236.63,251.136L236.63,263.095L141.478,263.095C135.955,263.095 131.478,267.572 131.478,273.095L131.478,294.548C131.478,308.502 132.901,324.437 143.457,336.826C152.909,347.92 167.961,354.786 192.263,359.087C208.775,362.019 227.39,363.569 246.092,363.569C264.747,363.569 283.115,362.1 300.686,359.204C317.031,356.442 332.069,348.905 343.071,337.975C355.012,326.11 361.59,310.722 361.59,294.646L361.59,194.411C361.59,159.444 333.539,130.997 299.061,130.997L194.005,130.997C164.328,130.997 138.296,105.148 138.296,75.681L138.296,27.68C138.296,22.158 133.819,17.681 128.296,17.681ZM102.032,231.136C73.819,231.136 52.89,214.073 46.048,185.493C36.522,145.93 36.523,123.018 46.047,83.328C51.055,62.507 63.128,37.681 92.195,37.681L118.296,37.681L118.296,75.682C118.296,94.945 126.455,114.169 140.682,128.425C155.209,142.982 174.146,150.998 194.005,150.998L299.059,150.998C322.51,150.998 341.588,170.474 341.588,194.412L341.588,294.647C341.588,319.176 319.355,335.767 297.393,339.478C280.933,342.191 263.66,343.57 246.091,343.57C228.542,343.57 211.135,342.126 195.754,339.395C155.846,332.331 151.479,319.706 151.479,294.548L151.479,283.095L246.631,283.095C252.154,283.095 256.631,278.618 256.631,273.095L256.631,241.136C256.631,235.613 252.154,231.136 246.631,231.136L102.032,231.136Z" style="fill:rgb(39,92,135);fill-rule:nonzero;"/>
            </g>
            <g transform="matrix(0.220598,0,0,-0.220692,66.6875,271.065)">
                <path d="M474.975,434.533C467.4,464.928 453.04,487.848 422.448,487.848L383.005,487.848L383.005,441.222C383.005,405.023 352.313,374.531 317.295,374.531L212.24,374.531C183.516,374.531 159.712,349.937 159.712,321.117L159.712,220.979C159.712,192.455 184.5,175.733 212.24,167.566C245.487,157.829 277.455,156.057 317.294,167.566C343.756,175.241 369.823,190.682 369.823,220.979L369.823,241.976L264.867,241.976L264.867,274.393L422.447,274.393C453.04,274.393 464.351,295.739 474.974,327.707C485.992,360.661 485.501,392.335 474.975,434.533Z" style="fill:rgb(255,202,29);fill-rule:nonzero;"/>
            </g>
            <g transform="matrix(0.220598,0,0,-0.220692,66.6875,270.286)">
                <path d="M264.431,146.057C246.684,146.057 228.693,148.8 209.43,154.442C170.915,165.781 149.712,188.157 149.712,217.452L149.712,317.589C149.712,351.963 178.346,381.003 212.24,381.003L317.294,381.003C346.972,381.003 373.004,407.494 373.004,437.694L373.004,484.32C373.004,489.843 377.482,494.32 383.004,494.32L422.447,494.32C439.723,494.32 453.993,488.041 464.859,475.656C473.593,465.701 480.076,451.886 484.677,433.424C495.868,388.561 495.803,354.941 484.458,321.009C474.348,290.585 461.228,260.865 422.446,260.865L274.866,260.865L274.866,248.448L369.822,248.448C375.344,248.448 379.822,243.97 379.822,238.448L379.822,217.451C379.822,196.607 369.457,168.755 320.078,154.433C300.563,148.796 282.364,146.057 264.431,146.057ZM212.24,361.003C189.187,361.003 169.712,341.122 169.712,317.589L169.712,217.451C169.712,190.941 198.127,178.617 215.065,173.631C232.704,168.465 248.395,166.057 264.431,166.057C280.459,166.057 296.844,168.539 314.519,173.646C344.578,182.364 359.824,197.103 359.824,217.452L359.824,228.449L264.868,228.449C259.346,228.449 254.868,232.927 254.868,238.449L254.868,270.866C254.868,276.388 259.346,280.866 264.868,280.866L422.448,280.866C443.596,280.866 453.652,291.723 465.485,327.334C475.674,357.81 475.611,387.139 465.272,428.586C457.389,460.217 444.182,474.321 422.448,474.321L393.005,474.321L393.005,437.695C393.005,396.124 358.334,361.004 317.295,361.004L212.24,361.004L212.24,361.003Z" style="fill:rgb(191,152,22);fill-rule:nonzero;"/>
            </g>
            <g transform="matrix(-0.220598,0,0,-0.220692,149.374,160.026)">
                <ellipse cx="187.415" cy="70.383" rx="18.976" ry="19.212" style="fill:white;"/>
            </g>
            <g transform="matrix(-0.220598,0,0,-0.220692,205.624,323.551)">
                <ellipse cx="314.908" cy="440.864" rx="18.976" ry="19.212" style="fill:white;"/>
            </g>
            <g transform="matrix(3.49263,0,0,-3.49412,32.8458,532.131)">
                <path d="M73.5,71.7C73.6,72.9 72.3,74 71.2,74C62.2,73.9 53.1,74 44.1,73.8C39.6,73.7 35.1,73.6 30.5,73.4C26.3,73.2 21.8,73.4 17.8,72.1C16.5,71.7 16.4,69.7 17.8,69.3C18.1,69.2 18.4,69.2 18.7,69.1C18.3,68.6 18.1,68.1 18.1,67.3C18,62.8 17.5,58.4 16.6,54C16.3,52.6 17,50.6 18.7,50.3C36,47.6 53.7,48 71.2,50.2C72.5,50.4 74,51.3 73.9,52.9C73.5,59 72.8,65.5 73.5,71.7ZM68.5,55.2C65,54.9 61.4,54.7 57.9,54.5C58.4,59.1 57.8,64.2 57.3,68.9C61.1,69 64.9,69.2 68.7,69.3C68.3,64.6 68.4,59.9 68.5,55.2ZM30.5,68.4L34.9,68.4C35.2,63.7 35,59.3 34.4,54.6C30.5,54.8 26.7,55.2 22.9,55.7C23.5,59.5 23.9,63.4 23.9,67.3C23.9,67.8 23.8,68.2 23.7,68.5C25.9,68.4 28.2,68.5 30.5,68.4ZM40.1,54.3C40.8,58.9 40.5,63.9 39.2,68.4C40.8,68.4 42.4,68.4 44,68.5C47.2,68.5 50.3,68.6 53.5,68.7C53,64 52.4,58.9 52.9,54.3C48.6,54.2 44.3,54.2 40.1,54.3Z" style="fill:rgb(191,152,22);fill-rule:nonzero;"/>
            </g>
            <g transform="matrix(3.49263,0,0,-3.49412,32.8458,178.461)">
                <path d="M17.4,20.1C21.2,21.6 24.3,24.4 27,27.5C29.1,25.4 31.2,23.3 33.2,21C36.2,17.6 41.6,23.1 38.2,26C35,28.7 32,31.7 29,34.5C27.5,36 25.2,35.6 24,33.9C21.5,30.1 18.6,26.9 15.2,23.9C13.5,22.5 15.3,19.3 17.4,20.1Z" style="fill:rgb(39,92,135);fill-rule:nonzero;"/>
            </g>
            <g transform="matrix(3.49263,0,0,-3.49412,32.8458,178.461)">
                <path d="M76.2,26C73,28.7 70.1,31.7 67,34.5C65.5,36 63.2,35.6 62,33.9C59.5,30.1 56.6,26.9 53.2,23.9C51.5,22.5 53.3,19.3 55.4,20.1C59.2,21.6 62.3,24.4 65,27.5C67.1,25.4 69.2,23.3 71.2,21C74.3,17.6 79.7,23.1 76.2,26Z" style="fill:rgb(39,92,135);fill-rule:nonzero;"/>
            </g>
        </g>
    </g>
</svg>
