<?xml version="1.0" encoding="UTF-8" standalone="no"?><!DOCTYPE svg PUBLIC "-//W3C//DTD SVG 1.1//EN" "http://www.w3.org/Graphics/SVG/1.1/DTD/svg11.dtd"><svg width="100%" height="100%" viewBox="0 0 1604 1637" version="1.1" xmlns="http://www.w3.org/2000/svg" xmlns:xlink="http://www.w3.org/1999/xlink" xml:space="preserve" xmlns:serif="http://www.serif.com/" style="fill-rule:evenodd;clip-rule:evenodd;"><rect x="0" y="-0" width="1604.17" height="1635.38" style="fill:#fff;"/><g><clipPath id="_clip1"><rect x="-7.81" y="-3.229" width="1616.28" height="1646.69"/></clipPath><g clip-path="url(#_clip1)"><path d="M-4.577,1627.31l-0,-1617.63c-0,-1.284 0.246,-2.52 0.738,-3.706c0.492,-1.187 1.193,-2.235 2.102,-3.143c0.91,-0.908 1.958,-1.608 3.146,-2.1c1.189,-0.491 2.426,-0.737 3.712,-0.737l1590.42,-0c1.286,-0 2.523,0.246 3.711,0.737c1.188,0.492 2.237,1.192 3.146,2.1c0.909,0.908 1.61,1.956 2.102,3.143c0.492,1.186 0.739,2.422 0.739,3.706l-0,1617.63c-0,1.284 -0.247,2.519 -0.739,3.706c-0.492,1.187 -1.193,2.234 -2.102,3.143c-0.909,0.908 -1.958,1.608 -3.146,2.099c-1.188,0.492 -2.425,0.738 -3.711,0.738l-1590.42,0c-1.286,-0 -2.523,-0.246 -3.712,-0.738c-1.188,-0.491 -2.236,-1.191 -3.146,-2.099c-0.909,-0.909 -1.61,-1.956 -2.102,-3.143c-0.492,-1.187 -0.738,-2.422 -0.738,-3.706Z" style="fill:none;fill-rule:nonzero;stroke:#666;stroke-width:6.37px;"/><rect x="-1.345" y="3.229" width="129.302" height="129.152" style="fill:#666;"/><path d="M82.702,64.576l-0,6.458l-24.522,-0l7.412,7.403l-4.571,4.566l-15.216,-15.198l15.216,-15.199l4.571,4.567l-7.412,7.403l24.522,-0Z" style="fill:#fff;"/><rect x="-1.345" y="0" width="129.302" height="6.458" style="fill:#666;"/><rect x="124.725" y="3.229" width="6.465" height="129.152" style="fill:#666;"/><rect x="-1.345" y="129.152" width="129.302" height="6.458" style="fill:#666;"/><rect x="-4.577" y="3.229" width="6.465" height="129.152" style="fill:#666;"/><rect x="127.958" y="3.229" width="80.814" height="129.152" style="fill:#666;"/><path d="M127.958,64.576l-0,6.458l22.236,-0l-7.412,7.403l4.571,4.566l15.216,-15.198l-15.216,-15.199l-4.571,4.567l7.412,7.403l-22.236,-0Z" style="fill:#fff;"/><rect x="127.958" y="0" width="80.814" height="6.458" style="fill:#666;"/><rect x="205.539" y="3.229" width="6.465" height="129.152" style="fill:#666;"/><rect x="127.958" y="129.152" width="80.814" height="6.458" style="fill:#666;"/><rect x="208.772" y="3.229" width="77.581" height="129.152" style="fill:#666;"/><path d="M237.865,58.118c-2.948,-3.921 -7.643,-6.457 -12.93,-6.457c-8.927,-0 -16.163,7.228 -16.163,16.144c-0,8.916 7.236,16.144 16.163,16.144c6.354,-0 11.852,-3.663 14.492,-8.99l-5.793,-2.865c-1.627,3.28 -4.971,5.397 -8.699,5.397c-5.356,0 -9.698,-4.337 -9.698,-9.686c-0,-5.35 4.342,-9.687 9.698,-9.687c3.425,0 6.532,1.784 8.282,4.643l-5.05,5.044l12.93,-0l0,-12.915l-3.232,3.228Z" style="fill:#fff;"/><rect x="208.772" y="0" width="77.581" height="6.458" style="fill:#666;"/><rect x="283.121" y="3.229" width="6.465" height="129.152" style="fill:#666;"/><rect x="208.772" y="129.152" width="77.581" height="6.458" style="fill:#666;"/><rect x="286.353" y="3.229" width="1192.81" height="129.152" style="fill:#666;"/><path d="M289.586,87.178l-0,-38.746c-0,-1.713 0.328,-3.36 0.984,-4.942c0.656,-1.583 1.59,-2.979 2.803,-4.19c1.212,-1.212 2.611,-2.145 4.195,-2.8c1.584,-0.656 3.233,-0.983 4.948,-0.983l1160.49,-0c1.715,-0 3.364,0.327 4.948,0.983c1.584,0.655 2.983,1.588 4.195,2.8c1.212,1.211 2.147,2.607 2.803,4.19c0.656,1.582 0.984,3.229 0.984,4.942l0,38.746c0,1.712 -0.328,3.36 -0.984,4.942c-0.656,1.582 -1.591,2.979 -2.803,4.19c-1.212,1.211 -2.611,2.144 -4.195,2.8c-1.584,0.655 -3.233,0.983 -4.948,0.983l-1160.49,-0c-1.715,-0 -3.364,-0.328 -4.948,-0.983c-1.584,-0.656 -2.983,-1.589 -4.195,-2.8c-1.213,-1.211 -2.147,-2.608 -2.803,-4.19c-0.656,-1.582 -0.984,-3.23 -0.984,-4.942Z" style="fill:#fff;fill-rule:nonzero;"/><rect x="286.353" y="0" width="1192.81" height="6.458" style="fill:#666;"/><rect x="1475.93" y="3.229" width="6.465" height="129.152" style="fill:#666;"/><rect x="286.353" y="129.152" width="1192.81" height="6.458" style="fill:#666;"/><rect x="1479.17" y="3.229" width="122.837" height="129.152" style="fill:#666;"/><path d="M1535.07,66.859l-10.644,-10.632l4.571,-4.566l10.645,10.632l10.644,-10.632l4.572,4.566l-10.645,10.632l10.645,10.632l-4.572,4.566l-10.644,-10.632l-10.645,10.632l-4.571,-4.566l10.644,-10.632Z" style="fill:#fff;"/><rect x="1479.17" y="0" width="122.837" height="6.458" style="fill:#666;"/><rect x="1598.77" y="3.229" width="6.465" height="129.152" style="fill:#666;"/><rect x="1479.17" y="129.152" width="122.837" height="6.458" style="fill:#666;"/><path d="M1061.45,758.805l97.905,-0c27.228,-0 48.954,-22.47 48.954,-49.8l0,-93.454c0,-26.595 -22.369,-46.496 -48.954,-50.99c-32.818,-5.412 -68.479,-5.137 -97.905,0.09c-41.436,7.338 -48.952,22.654 -48.952,50.993l-0,20.001l97.996,0l-0,29.797l-134.758,0c-28.509,0 -53.446,17.15 -61.237,49.708c-8.984,37.326 -9.349,60.621 -0,99.598c6.968,28.982 23.56,49.707 52.07,49.707l33.644,0l-0,-44.753c-0,-32.374 27.96,-60.897 61.237,-60.897Z" style="fill:#347ab4;fill-rule:nonzero;"/><path d="M1000.22,873.779l-33.644,-0c-30.607,-0 -52.317,-20.19 -61.131,-56.851c-9.456,-39.416 -9.455,-64.676 -0,-103.961c4.213,-17.607 13.273,-32.221 26.199,-42.248c12.311,-9.552 27.56,-14.6 44.098,-14.6l125.439,-0l0,-11.15l-88.676,-0c-5.147,-0 -9.32,-4.174 -9.32,-9.324l0,-20.001c0,-13.01 1.326,-27.867 11.164,-39.418c8.809,-10.343 22.837,-16.745 45.485,-20.755c15.388,-2.733 32.736,-4.179 50.165,-4.179c17.386,0 34.504,1.37 50.879,4.07c15.233,2.575 29.247,9.602 39.501,19.793c11.128,11.062 17.258,25.409 17.258,40.397l0,93.454c0,32.601 -26.142,59.123 -58.273,59.123l-97.907,0c-27.657,0 -51.918,24.101 -51.918,51.574l0,44.753c0,5.149 -4.172,9.323 -9.319,9.323Zm-24.477,-199.014c-26.293,0 -45.797,15.909 -52.174,42.555c-8.878,36.887 -8.877,58.249 -0.001,95.253c4.667,19.413 15.919,42.559 43.008,42.559l24.324,-0l0,-35.43c0,-17.96 7.604,-35.883 20.863,-49.175c13.538,-13.572 31.187,-21.045 49.694,-21.045l97.905,-0c21.855,-0 39.635,-18.159 39.635,-40.477l-0,-93.454c-0,-22.869 -20.72,-38.338 -41.188,-41.797c-15.34,-2.53 -31.437,-3.816 -47.811,-3.816c-16.354,0 -32.577,1.347 -46.911,3.893c-37.192,6.586 -41.262,18.357 -41.262,41.813l0,10.678l88.677,-0c5.147,-0 9.319,4.174 9.319,9.323l0,29.797c0,5.149 -4.172,9.323 -9.319,9.323l-134.759,0Z" style="fill:#275c87;fill-rule:nonzero;"/><path d="M1323.3,730.014c-7.059,-28.338 -20.442,-49.708 -48.952,-49.708l-36.759,0l0,43.472c0,33.75 -28.603,62.179 -61.238,62.179l-97.906,-0c-26.769,-0 -48.953,22.93 -48.953,49.8l-0,93.363c-0,26.594 23.101,42.185 48.953,49.799c30.985,9.078 60.777,10.73 97.905,0c24.661,-7.156 48.954,-21.552 48.954,-49.799l0,-19.577l-97.813,0l-0,-30.223l146.856,-0c28.511,-0 39.052,-19.902 48.952,-49.707c10.268,-30.725 9.811,-60.256 0.001,-99.599Z" style="fill:#ffca1d;fill-rule:nonzero;"/><path d="M1127.09,995.684c-16.539,-0 -33.305,-2.558 -51.258,-7.818c-35.894,-10.572 -55.654,-31.434 -55.654,-58.747l0,-93.362c0,-32.048 26.686,-59.124 58.273,-59.124l97.905,0c27.658,0 51.919,-24.698 51.919,-52.855l-0,-43.472c-0,-5.149 4.173,-9.323 9.319,-9.323l36.759,-0c16.1,-0 29.399,5.854 39.526,17.401c8.139,9.282 14.181,22.162 18.469,39.375c10.429,41.828 10.369,73.173 -0.204,104.809c-9.422,28.366 -21.649,56.075 -57.792,56.075l-137.537,0l0,11.577l88.494,-0c5.146,-0 9.32,4.175 9.32,9.323l-0,19.577c-0,19.434 -9.66,45.401 -55.679,58.754c-18.187,5.256 -35.147,7.81 -51.86,7.81Zm-48.639,-200.404c-21.484,0 -39.634,18.536 -39.634,40.477l0,93.363c0,24.716 26.482,36.206 42.267,40.855c16.439,4.817 31.062,7.062 46.006,7.062c14.938,-0 30.208,-2.314 46.68,-7.076c28.013,-8.128 42.222,-21.87 42.222,-40.842l-0,-10.253l-88.494,-0c-5.147,-0 -9.32,-4.175 -9.32,-9.323l0,-30.224c0,-5.149 4.173,-9.324 9.32,-9.324l146.856,0c19.709,0 29.08,-10.122 40.108,-43.324c9.496,-28.414 9.437,-55.759 -0.199,-94.401c-7.346,-29.491 -19.654,-42.641 -39.909,-42.641l-27.44,-0l0,34.148c0,38.758 -32.311,71.502 -70.557,71.502l-97.906,0l0,0.001Z" style="fill:#bf9816;fill-rule:nonzero;"/><ellipse cx="1055.31" cy="600.428" rx="17.684" ry="17.912" style="fill:#fff;"/><ellipse cx="1174.13" cy="945.845" rx="17.685" ry="17.912" style="fill:#fff;"/><path d="M452.761,758.805l97.905,-0c27.228,-0 48.954,-22.47 48.954,-49.8l0,-93.454c0,-26.595 -22.368,-46.496 -48.954,-50.99c-32.817,-5.412 -68.478,-5.137 -97.905,0.09c-41.436,7.338 -48.952,22.654 -48.952,50.993l0,20.001l97.996,0l0,29.797l-134.758,0c-28.509,0 -53.446,17.15 -61.237,49.708c-8.984,37.326 -9.349,60.621 0,99.598c6.968,28.982 23.56,49.707 52.07,49.707l33.644,0l0,-44.753c0,-32.374 27.96,-60.897 61.237,-60.897Z" style="fill:#347ab4;fill-rule:nonzero;"/><path d="M391.524,873.779l-33.644,-0c-30.607,-0 -52.317,-20.19 -61.131,-56.851c-9.456,-39.416 -9.455,-64.676 -0,-103.961c4.213,-17.607 13.274,-32.221 26.199,-42.248c12.311,-9.552 27.56,-14.6 44.098,-14.6l125.44,-0l-0,-11.15l-88.677,-0c-5.147,-0 -9.319,-4.174 -9.319,-9.324l-0,-20.001c-0,-13.01 1.326,-27.867 11.163,-39.418c8.809,-10.343 22.837,-16.745 45.485,-20.755c15.388,-2.733 32.736,-4.179 50.166,-4.179c17.385,0 34.503,1.37 50.878,4.07c15.233,2.575 29.248,9.602 39.501,19.793c11.128,11.062 17.259,25.409 17.259,40.397l-0,93.454c-0,32.601 -26.142,59.123 -58.274,59.123l-97.907,0c-27.657,0 -51.917,24.101 -51.917,51.574l-0,44.753c-0,5.149 -4.173,9.323 -9.32,9.323Zm-24.477,-199.014c-26.293,0 -45.797,15.909 -52.174,42.555c-8.877,36.887 -8.876,58.249 -0.001,95.253c4.668,19.413 15.919,42.559 43.008,42.559l24.325,-0l-0,-35.43c-0,-17.96 7.603,-35.883 20.862,-49.175c13.539,-13.572 31.187,-21.045 49.694,-21.045l97.905,-0c21.855,-0 39.635,-18.159 39.635,-40.477l-0,-93.454c-0,-22.869 -20.72,-38.338 -41.188,-41.797c-15.339,-2.53 -31.437,-3.816 -47.81,-3.816c-16.355,0 -32.577,1.347 -46.912,3.893c-37.192,6.586 -41.262,18.357 -41.262,41.813l0,10.678l88.677,-0c5.147,-0 9.319,4.174 9.319,9.323l0,29.797c0,5.149 -4.172,9.323 -9.319,9.323l-134.759,0Z" style="fill:#275c87;fill-rule:nonzero;"/><path d="M714.61,730.014c-7.059,-28.338 -20.442,-49.708 -48.952,-49.708l-36.759,0l0,43.472c0,33.75 -28.603,62.179 -61.238,62.179l-97.906,-0c-26.769,-0 -48.953,22.93 -48.953,49.8l0,93.363c0,26.594 23.101,42.185 48.953,49.799c30.985,9.078 60.777,10.73 97.905,0c24.661,-7.156 48.954,-21.552 48.954,-49.799l0,-19.577l-97.813,0l-0,-30.223l146.856,-0c28.511,-0 39.052,-19.902 48.952,-49.707c10.269,-30.725 9.811,-60.256 0.001,-99.599Z" style="fill:#ffca1d;fill-rule:nonzero;"/><path d="M518.395,995.684c-16.54,-0 -33.306,-2.558 -51.258,-7.818c-35.894,-10.572 -55.654,-31.434 -55.654,-58.747l-0,-93.362c-0,-32.048 26.685,-59.124 58.272,-59.124l97.905,0c27.658,0 51.919,-24.698 51.919,-52.855l-0,-43.472c-0,-5.149 4.173,-9.323 9.319,-9.323l36.759,-0c16.1,-0 29.399,5.854 39.526,17.401c8.139,9.282 14.181,22.162 18.469,39.375c10.429,41.828 10.369,73.173 -0.204,104.809c-9.422,28.366 -21.649,56.075 -57.792,56.075l-137.537,0l0,11.577l88.494,-0c5.147,-0 9.32,4.175 9.32,9.323l-0,19.577c-0,19.434 -9.66,45.401 -55.678,58.754c-18.187,5.256 -35.148,7.81 -51.86,7.81Zm-48.64,-200.404c-21.484,0 -39.633,18.536 -39.633,40.477l-0,93.363c-0,24.716 26.481,36.206 42.266,40.855c16.439,4.817 31.062,7.062 46.007,7.062c14.937,-0 30.207,-2.314 46.679,-7.076c28.013,-8.128 42.222,-21.87 42.222,-40.842l-0,-10.253l-88.494,-0c-5.146,-0 -9.32,-4.175 -9.32,-9.323l0,-30.224c0,-5.149 4.174,-9.324 9.32,-9.324l146.856,0c19.709,0 29.08,-10.122 40.108,-43.324c9.496,-28.414 9.437,-55.759 -0.198,-94.401c-7.347,-29.491 -19.655,-42.641 -39.91,-42.641l-27.439,-0l-0,34.148c-0,38.758 -32.312,71.502 -70.558,71.502l-97.906,0l0,0.001Z" style="fill:#bf9816;fill-rule:nonzero;"/><ellipse cx="446.619" cy="600.428" rx="17.684" ry="17.912" style="fill:#fff;"/><ellipse cx="565.436" cy="945.845" rx="17.685" ry="17.912" style="fill:#fff;"/><path d="M1213.49,1179.66c1.475,-17.713 -17.706,-33.951 -33.937,-33.951c-132.796,1.476 -267.067,0 -399.862,2.953c-66.398,1.476 -132.796,2.952 -200.669,5.904c-61.972,2.952 -128.37,0 -187.39,19.19c-19.182,5.904 -20.657,35.427 0,41.332c4.427,1.476 8.853,1.476 13.28,2.952c-5.902,7.381 -8.853,14.761 -8.853,26.57c-1.476,66.427 -8.853,131.377 -22.133,196.326c-4.427,20.666 5.902,50.189 30.986,54.617c255.262,39.856 516.427,33.951 774.641,1.477c19.182,-2.953 41.314,-16.238 39.839,-39.856c-5.902,-90.044 -16.231,-185.993 -5.902,-277.514Zm-73.776,243.563c-51.642,4.428 -104.761,7.38 -156.403,10.333c7.377,-67.903 -1.476,-143.185 -8.853,-212.564c56.069,-1.476 112.138,-4.428 168.207,-5.904c-5.902,69.378 -4.426,138.756 -2.951,208.135Zm-560.692,-194.85l64.922,-0c4.426,69.378 1.475,134.328 -7.378,203.707c-57.544,-2.953 -113.614,-8.857 -169.683,-16.238c8.853,-56.093 14.755,-113.662 14.755,-171.232c0,-7.38 -1.475,-13.285 -2.951,-17.713c32.461,1.476 66.398,-0 100.335,1.476Zm141.648,208.135c10.329,-67.902 5.902,-141.709 -13.279,-208.135c23.608,-0 47.216,-0 70.824,-1.476c47.216,-0 92.957,-1.476 140.173,-2.952c-7.377,69.378 -16.23,144.661 -8.853,212.563c-63.447,1.476 -126.893,1.476 -188.865,0Z" style="fill:#275c87;fill-rule:nonzero;"/><path d="M385.729,447.229c56.069,-22.142 101.81,-63.474 141.649,-109.234c30.985,30.999 61.971,61.997 91.481,95.948c44.265,50.189 123.943,-30.998 73.776,-73.806c-47.217,-39.856 -91.482,-84.14 -135.747,-125.472c-22.133,-22.142 -56.069,-16.237 -73.775,8.857c-36.888,56.093 -79.678,103.329 -129.845,147.614c-25.084,20.665 1.475,67.902 32.461,56.093Z" style="fill:#275c87;fill-rule:nonzero;"/><path d="M1253.33,360.137c-47.216,-39.856 -90.006,-84.14 -135.746,-125.472c-22.133,-22.142 -56.069,-16.237 -73.776,8.857c-36.887,56.093 -79.677,103.329 -129.844,147.614c-25.084,20.665 1.475,67.902 32.461,56.093c56.069,-22.142 101.81,-63.474 141.649,-109.234c30.985,30.999 61.971,61.997 91.481,95.948c45.741,50.189 125.418,-30.998 73.775,-73.806Z" style="fill:#275c87;fill-rule:nonzero;"/></g></g></svg>